<?xml version="1.0" encoding="UTF-8" standalone="no"?><!DOCTYPE svg PUBLIC "-//W3C//DTD SVG 1.1//EN" "http://www.w3.org/Graphics/SVG/1.1/DTD/svg11.dtd"><svg width="100%" height="100%" viewBox="0 0 1920 1080" version="1.1" xmlns="http://www.w3.org/2000/svg" xmlns:xlink="http://www.w3.org/1999/xlink" xml:space="preserve" xmlns:serif="http://www.serif.com/" style="fill-rule:evenodd;clip-rule:evenodd;stroke-linejoin:round;stroke-miterlimit:2;"><g id="Layer-1" serif:id="Layer 1"><rect x="0" y="0" width="1919.79" height="1080" style="fill:#0d1321;"/><path d="M188.314,192.817l-100.2,102.217" style="fill:none;fill-rule:nonzero;"/><path d="M88.114,302.034c-1.768,0 -3.537,-0.666 -4.9,-2.001c-2.761,-2.707 -2.805,-7.138 -0.099,-9.899l100.2,-102.217c2.706,-2.761 7.137,-2.805 9.9,-0.099c2.76,2.707 2.804,7.138 0.098,9.9l-100.199,102.216c-1.372,1.399 -3.185,2.1 -5,2.1" style="fill:#0a2463;fill-rule:nonzero;"/><path d="M311.603,67.045l-72.548,74.009" style="fill:none;fill-rule:nonzero;"/><path d="M239.055,148.054c-1.768,0 -3.537,-0.666 -4.9,-2.001c-2.761,-2.707 -2.805,-7.138 -0.099,-9.899l72.548,-74.009c2.707,-2.76 7.138,-2.805 9.9,-0.099c2.76,2.707 2.804,7.138 0.098,9.9l-72.547,74.008c-1.372,1.398 -3.185,2.1 -5,2.1" style="fill:#0a2463;fill-rule:nonzero;"/><path d="M214.128,648.74c-2.021,0 -4.043,-0.761 -5.6,-2.287c-3.155,-3.093 -3.205,-8.158 -0.112,-11.314l136.426,-139.172c3.093,-3.155 8.159,-3.206 11.313,-0.113c3.155,3.093 3.205,8.158 0.113,11.313l-136.427,139.174c-1.566,1.597 -3.639,2.399 -5.713,2.399" style="fill:#1b998b;fill-rule:nonzero;"/><path d="M1799.62,808.76c-2.021,0 -4.042,-0.761 -5.6,-2.287c-3.154,-3.093 -3.205,-8.158 -0.112,-11.314l40.865,-41.688c3.093,-3.154 8.159,-3.205 11.314,-0.112c3.154,3.092 3.205,8.158 0.112,11.313l-40.865,41.689c-1.567,1.597 -3.64,2.399 -5.714,2.399" style="fill:#fb3640;fill-rule:nonzero;"/><path d="M1214.1,289.103c-2.022,0 -4.043,-0.761 -5.601,-2.287c-3.155,-3.093 -3.205,-8.159 -0.111,-11.313l98.089,-100.064c3.093,-3.154 8.158,-3.206 11.313,-0.112c3.156,3.092 3.206,8.157 0.113,11.313l-98.09,100.063c-1.567,1.598 -3.639,2.4 -5.714,2.4" style="fill:#fb3640;fill-rule:nonzero;"/><path d="M1170.7,189.04c-2.021,0 -4.042,-0.761 -5.6,-2.287c-3.155,-3.093 -3.205,-8.158 -0.112,-11.313l128.387,-130.97c3.093,-3.155 8.158,-3.206 11.313,-0.113c3.156,3.093 3.205,8.158 0.113,11.313l-128.387,130.97c-1.567,1.598 -3.64,2.4 -5.714,2.4" style="fill:#1b998b;fill-rule:nonzero;"/><path d="M1356.96,313.213c-2.021,0 -4.042,-0.761 -5.6,-2.287c-3.155,-3.093 -3.205,-8.158 -0.112,-11.313l119.927,-122.342c3.093,-3.154 8.157,-3.205 11.313,-0.113c3.155,3.093 3.205,8.158 0.113,11.313l-119.927,122.342c-1.567,1.598 -3.64,2.4 -5.714,2.4" style="fill:#0a2463;fill-rule:nonzero;"/><path d="M1611.53,286.511c-2.021,0 -4.042,-0.761 -5.6,-2.287c-3.155,-3.093 -3.205,-8.158 -0.112,-11.313l223.489,-227.989c3.093,-3.155 8.158,-3.206 11.314,-0.113c3.154,3.093 3.205,8.158 0.112,11.313l-223.489,227.989c-1.567,1.598 -3.64,2.4 -5.714,2.4" style="fill:#1b998b;fill-rule:nonzero;"/><path d="M26.469,516.505c-2.021,0 -4.042,-0.761 -5.6,-2.287c-3.155,-3.093 -3.205,-8.158 -0.112,-11.313l95.066,-96.98c3.093,-3.156 8.158,-3.205 11.313,-0.113c3.155,3.093 3.206,8.158 0.113,11.313l-95.067,96.98c-1.566,1.598 -3.639,2.4 -5.713,2.4" style="fill:#1b998b;fill-rule:nonzero;"/><path d="M178.298,361.619c-2.021,0 -4.042,-0.761 -5.6,-2.287c-3.155,-3.093 -3.205,-8.158 -0.112,-11.313l71.66,-73.103c3.093,-3.154 8.157,-3.206 11.313,-0.113c3.155,3.093 3.205,8.158 0.113,11.313l-71.661,73.103c-1.566,1.598 -3.639,2.4 -5.713,2.4" style="fill:#1b998b;fill-rule:nonzero;"/><path d="M989.521,862.828c-2.021,0 -4.042,-0.761 -5.6,-2.287c-3.154,-3.093 -3.205,-8.158 -0.112,-11.314l94.712,-96.618c3.093,-3.153 8.158,-3.205 11.313,-0.112c3.156,3.093 3.206,8.158 0.113,11.313l-94.712,96.619c-1.567,1.597 -3.64,2.399 -5.714,2.399" style="fill:#1b998b;fill-rule:nonzero;"/><path d="M1127.29,722.286c-2.021,0 -4.043,-0.761 -5.601,-2.287c-3.154,-3.093 -3.205,-8.158 -0.112,-11.314l85.721,-87.446c3.094,-3.155 8.159,-3.203 11.313,-0.112c3.155,3.093 3.205,8.158 0.113,11.313l-85.721,87.447c-1.567,1.597 -3.64,2.399 -5.713,2.399" style="fill:#0a2463;fill-rule:nonzero;"/><path d="M1566,941.83c-2.021,0 -4.042,-0.761 -5.6,-2.287c-3.155,-3.093 -3.205,-8.158 -0.112,-11.314l223.489,-227.988c3.093,-3.154 8.159,-3.205 11.314,-0.112c3.154,3.093 3.205,8.158 0.112,11.313l-223.489,227.989c-1.567,1.597 -3.64,2.399 -5.714,2.399" style="fill:#0a2463;fill-rule:nonzero;"/><path d="M1214.11,1023.44c-2.021,0 -4.042,-0.76 -5.6,-2.287c-3.154,-3.092 -3.205,-8.157 -0.112,-11.313l110.641,-112.87c3.092,-3.152 8.157,-3.204 11.313,-0.111c3.154,3.092 3.205,8.158 0.112,11.313l-110.64,112.87c-1.567,1.597 -3.64,2.399 -5.714,2.399" style="fill:#1b998b;fill-rule:nonzero;"/><path d="M1534.81,673.494c-2.021,0 -4.042,-0.761 -5.6,-2.287c-3.154,-3.093 -3.205,-8.158 -0.112,-11.314l223.489,-227.987c3.093,-3.155 8.159,-3.206 11.314,-0.113c3.155,3.093 3.205,8.158 0.112,11.313l-223.489,227.989c-1.567,1.597 -3.64,2.399 -5.714,2.399" style="fill:#1b998b;fill-rule:nonzero;"/><path d="M529.238,475.613c-2.021,0 -4.043,-0.761 -5.6,-2.287c-3.155,-3.093 -3.205,-8.158 -0.112,-11.313l223.489,-227.988c3.093,-3.155 8.159,-3.206 11.313,-0.113c3.155,3.093 3.205,8.158 0.113,11.313l-223.49,227.988c-1.566,1.598 -3.639,2.4 -5.713,2.4" style="fill:#0a2463;fill-rule:nonzero;"/><path d="M486.567,1015.9c-2.021,0 -4.043,-0.761 -5.6,-2.287c-3.155,-3.093 -3.205,-8.158 -0.112,-11.314l223.489,-227.988c3.093,-3.153 8.159,-3.205 11.313,-0.112c3.155,3.093 3.205,8.158 0.113,11.313l-223.49,227.989c-1.566,1.597 -3.639,2.399 -5.713,2.399" style="fill:#fb3640;fill-rule:nonzero;"/><path d="M421.845,509.567c-2.021,0 -4.042,-0.761 -5.6,-2.287c-3.155,-3.093 -3.205,-8.158 -0.112,-11.313l90.7,-92.526c3.093,-3.156 8.158,-3.206 11.313,-0.113c3.155,3.093 3.205,8.158 0.113,11.313l-90.701,92.526c-1.566,1.598 -3.639,2.4 -5.713,2.4" style="fill:#fb3640;fill-rule:nonzero;"/><path d="M694.041,379.507c-2.021,0 -4.042,-0.761 -5.6,-2.287c-3.155,-3.093 -3.205,-8.158 -0.112,-11.313l86.272,-88.009c3.093,-3.155 8.158,-3.205 11.313,-0.113c3.155,3.093 3.206,8.158 0.113,11.313l-86.273,88.009c-1.566,1.598 -3.639,2.4 -5.713,2.4" style="fill:#fb3640;fill-rule:nonzero;"/><path d="M1773.71,303.034c-2.021,0 -4.042,-0.761 -5.6,-2.287c-3.155,-3.093 -3.205,-8.158 -0.112,-11.313l127.889,-130.463c3.093,-3.154 8.157,-3.205 11.313,-0.112c3.156,3.092 3.205,8.157 0.113,11.313l-127.889,130.462c-1.567,1.598 -3.64,2.4 -5.714,2.4" style="fill:#fb3640;fill-rule:nonzero;"/><path d="M1820.05,941.83c-2.021,0 -4.042,-0.761 -5.6,-2.287c-3.155,-3.093 -3.205,-8.158 -0.112,-11.314l72.665,-74.128c3.093,-3.153 8.157,-3.205 11.314,-0.112c3.155,3.093 3.205,8.158 0.112,11.314l-72.665,74.128c-1.567,1.597 -3.64,2.399 -5.714,2.399" style="fill:#fb3640;fill-rule:nonzero;"/><path d="M1404.79,575.792c-2.021,0 -4.042,-0.761 -5.6,-2.287c-3.155,-3.093 -3.205,-8.158 -0.112,-11.314l119.148,-121.544c3.092,-3.154 8.157,-3.206 11.313,-0.113c3.155,3.093 3.205,8.158 0.112,11.313l-119.147,121.546c-1.567,1.597 -3.64,2.399 -5.714,2.399" style="fill:#fb3640;fill-rule:nonzero;"/><path d="M766.032,885.045c-2.021,0 -4.042,-0.761 -5.6,-2.287c-3.155,-3.093 -3.205,-8.158 -0.112,-11.314l38.624,-39.401c3.093,-3.155 8.158,-3.205 11.313,-0.112c3.155,3.093 3.205,8.158 0.112,11.313l-38.624,39.402c-1.566,1.597 -3.639,2.399 -5.713,2.399" style="fill:#0a2463;fill-rule:nonzero;"/><path d="M848.213,801.209c-2.021,0 -4.042,-0.761 -5.6,-2.287c-3.155,-3.093 -3.205,-8.158 -0.112,-11.314l141.309,-144.152c3.094,-3.155 8.158,-3.204 11.313,-0.112c3.155,3.093 3.205,8.158 0.112,11.313l-141.309,144.153c-1.566,1.597 -3.639,2.399 -5.713,2.399" style="fill:#fb3640;fill-rule:nonzero;"/><path d="M294.372,318.566c-2.021,0 -4.042,-0.761 -5.6,-2.287c-3.155,-3.093 -3.205,-8.158 -0.112,-11.313l223.49,-227.988c3.093,-3.156 8.158,-3.205 11.313,-0.113c3.155,3.093 3.205,8.158 0.113,11.313l-223.491,227.988c-1.566,1.598 -3.639,2.4 -5.713,2.4" style="fill:#fb3640;fill-rule:nonzero;"/><path d="M232.85,1071.84c-2.021,0 -4.042,-0.761 -5.6,-2.287c-3.155,-3.093 -3.205,-8.158 -0.112,-11.314l127.448,-130.013c3.093,-3.155 8.158,-3.205 11.313,-0.113c3.155,3.093 3.205,8.159 0.113,11.314l-127.449,130.014c-1.566,1.597 -3.639,2.399 -5.713,2.399" style="fill:#fb3640;fill-rule:nonzero;"/><path d="M18.782,182.758c-1.768,0 -3.537,-0.666 -4.9,-2.001c-2.761,-2.707 -2.805,-7.139 -0.099,-9.899l142.724,-145.596c2.706,-2.76 7.137,-2.805 9.899,-0.099c2.761,2.707 2.805,7.139 0.099,9.9l-142.723,145.595c-1.372,1.398 -3.185,2.1 -5,2.1" style="fill:#fb3640;fill-rule:nonzero;"/><path d="M793.593,699.884c-2.021,0 -4.042,-0.761 -5.6,-2.287c-3.155,-3.093 -3.205,-8.158 -0.112,-11.314l223.49,-227.987c3.093,-3.155 8.157,-3.206 11.313,-0.113c3.156,3.093 3.205,8.158 0.113,11.313l-223.491,227.989c-1.566,1.597 -3.639,2.399 -5.713,2.399" style="fill:#fb3640;fill-rule:nonzero;"/><path d="M1151.13,616.709c-2.021,0 -4.042,-0.761 -5.6,-2.287c-3.155,-3.093 -3.205,-8.158 -0.112,-11.314l223.49,-227.987c3.093,-3.155 8.158,-3.206 11.314,-0.113c3.155,3.093 3.205,8.158 0.112,11.313l-223.49,227.989c-1.567,1.597 -3.64,2.399 -5.714,2.399" style="fill:#1b998b;fill-rule:nonzero;"/><path d="M1374.62,1015.9c-2.021,0 -4.042,-0.761 -5.6,-2.287c-3.155,-3.093 -3.205,-8.158 -0.112,-11.314l223.49,-227.988c3.093,-3.153 8.158,-3.205 11.314,-0.112c3.155,3.093 3.205,8.158 0.112,11.313l-223.49,227.989c-1.567,1.597 -3.64,2.399 -5.714,2.399" style="fill:#fb3640;fill-rule:nonzero;"/><path d="M1789.49,568.242c-2.021,0 -4.042,-0.761 -5.6,-2.287c-3.154,-3.093 -3.205,-8.158 -0.112,-11.314l102.362,-104.421c3.093,-3.155 8.158,-3.207 11.314,-0.113c3.155,3.093 3.205,8.157 0.112,11.313l-102.362,104.423c-1.567,1.597 -3.64,2.399 -5.714,2.399" style="fill:#fb3640;fill-rule:nonzero;"/><path d="M62.631,901.908c-2.021,0 -4.042,-0.761 -5.6,-2.287c-3.155,-3.093 -3.205,-8.158 -0.112,-11.314l223.49,-227.988c3.093,-3.154 8.158,-3.205 11.313,-0.112c3.155,3.093 3.205,8.158 0.113,11.313l-223.491,227.989c-1.566,1.597 -3.639,2.399 -5.713,2.399" style="fill:#1b998b;fill-rule:nonzero;"/><path d="M987.988,1051.32c-2.021,0 -4.042,-0.761 -5.6,-2.287c-3.154,-3.093 -3.205,-8.158 -0.112,-11.314l131.867,-134.52c3.093,-3.153 8.158,-3.205 11.314,-0.112c3.154,3.092 3.205,8.158 0.112,11.313l-131.867,134.521c-1.567,1.597 -3.64,2.399 -5.714,2.399" style="fill:#fb3640;fill-rule:nonzero;"/><path d="M23.085,424.362c-2.021,0 -4.042,-0.761 -5.6,-2.287c-3.155,-3.093 -3.205,-8.158 -0.112,-11.313l223.49,-227.988c3.093,-3.156 8.158,-3.206 11.313,-0.113c3.155,3.093 3.205,8.158 0.113,11.313l-223.491,227.988c-1.566,1.598 -3.639,2.4 -5.713,2.4" style="fill:#1b998b;fill-rule:nonzero;"/><path d="M1352.62,263.048c-2.021,0 -4.042,-0.761 -5.6,-2.287c-3.155,-3.093 -3.205,-8.158 -0.112,-11.313l223.49,-227.988c3.093,-3.155 8.158,-3.206 11.314,-0.113c3.155,3.093 3.205,8.158 0.112,11.313l-223.49,227.988c-1.567,1.598 -3.64,2.4 -5.714,2.4" style="fill:#1b998b;fill-rule:nonzero;"/><path d="M1454.25,85.226c-2.021,0 -4.042,-0.761 -5.6,-2.287c-3.155,-3.093 -3.205,-8.158 -0.112,-11.313l51.965,-53.01c3.093,-3.155 8.157,-3.206 11.313,-0.113c3.156,3.093 3.205,8.158 0.113,11.313l-51.965,53.01c-1.567,1.598 -3.64,2.4 -5.714,2.4" style="fill:#1b998b;fill-rule:nonzero;"/><path d="M557.852,185.362c-2.021,0 -4.042,-0.761 -5.6,-2.287c-3.155,-3.093 -3.205,-8.158 -0.112,-11.313l87.993,-89.764c3.093,-3.156 8.158,-3.206 11.313,-0.113c3.155,3.093 3.205,8.158 0.113,11.313l-87.994,89.764c-1.566,1.598 -3.639,2.4 -5.713,2.4" style="fill:#0a2463;fill-rule:nonzero;"/><path d="M1368.5,943.007c-2.021,0 -4.042,-0.761 -5.6,-2.287c-3.155,-3.093 -3.205,-8.158 -0.112,-11.314l51.384,-52.418c3.092,-3.154 8.157,-3.205 11.313,-0.112c3.156,3.093 3.205,8.158 0.113,11.314l-51.384,52.418c-1.567,1.597 -3.64,2.399 -5.714,2.399" style="fill:#0a2463;fill-rule:nonzero;"/><path d="M557.852,297.724c-2.021,0 -4.042,-0.761 -5.6,-2.287c-3.155,-3.093 -3.205,-8.158 -0.112,-11.313l111.717,-113.966c3.093,-3.156 8.158,-3.205 11.313,-0.113c3.155,3.093 3.205,8.158 0.113,11.313l-111.718,113.966c-1.566,1.598 -3.639,2.4 -5.713,2.4" style="fill:#0a2463;fill-rule:nonzero;"/><path d="M529.238,623.562c-2.021,0 -4.042,-0.761 -5.6,-2.288c-3.155,-3.092 -3.205,-8.157 -0.112,-11.313l223.49,-227.988c3.093,-3.155 8.158,-3.205 11.313,-0.113c3.155,3.094 3.205,8.159 0.113,11.313l-223.491,227.99c-1.566,1.596 -3.639,2.399 -5.713,2.399" style="fill:#1b998b;fill-rule:nonzero;"/><path d="M738.566,1043.92c-2.021,0 -4.042,-0.761 -5.6,-2.287c-3.155,-3.093 -3.205,-8.158 -0.112,-11.314l139.211,-142.013c3.093,-3.156 8.158,-3.205 11.313,-0.113c3.155,3.093 3.206,8.159 0.113,11.314l-139.212,142.014c-1.566,1.597 -3.639,2.399 -5.713,2.399" style="fill:#1b998b;fill-rule:nonzero;"/><path d="M1630.15,1061.46c-2.021,0 -4.042,-0.761 -5.6,-2.287c-3.154,-3.093 -3.205,-8.158 -0.112,-11.314l117.272,-119.633c3.092,-3.154 8.158,-3.205 11.313,-0.113c3.154,3.093 3.205,8.159 0.112,11.314l-117.271,119.634c-1.567,1.597 -3.64,2.399 -5.714,2.399" style="fill:#fb3640;fill-rule:nonzero;"/><path d="M30.204,657.603c-2.021,-0.001 -4.042,-0.762 -5.6,-2.288c-3.155,-3.093 -3.205,-8.158 -0.112,-11.314l87.597,-89.36c3.094,-3.154 8.158,-3.204 11.313,-0.112c3.156,3.093 3.206,8.158 0.113,11.313l-87.598,89.361c-1.566,1.597 -3.639,2.399 -5.713,2.399" style="fill:#1b998b;fill-rule:nonzero;"/><path d="M294.371,771.051c-2.021,0 -4.042,-0.761 -5.6,-2.287c-3.155,-3.093 -3.205,-8.158 -0.112,-11.314l223.49,-227.986c3.093,-3.156 8.158,-3.205 11.313,-0.113c3.155,3.093 3.205,8.158 0.113,11.313l-223.491,227.988c-1.566,1.597 -3.639,2.399 -5.713,2.399" style="fill:#fb3640;fill-rule:nonzero;"/><path d="M989.521,271.773c-2.022,0 -4.043,-0.761 -5.601,-2.287c-3.155,-3.093 -3.205,-8.158 -0.112,-11.313l223.49,-227.988c3.093,-3.154 8.158,-3.206 11.314,-0.113c3.155,3.093 3.205,8.158 0.112,11.313l-223.49,227.988c-1.567,1.598 -3.64,2.4 -5.714,2.4" style="fill:#0a2463;fill-rule:nonzero;"/><path d="M1188.7,941.83c-2.021,0 -4.042,-0.761 -5.6,-2.287c-3.155,-3.093 -3.205,-8.158 -0.112,-11.314l223.49,-227.988c3.093,-3.154 8.158,-3.205 11.314,-0.112c3.155,3.093 3.205,8.158 0.112,11.313l-223.49,227.989c-1.567,1.597 -3.64,2.399 -5.714,2.399" style="fill:#0a2463;fill-rule:nonzero;"/><path d="M1431.94,388.723c-2.021,0 -4.042,-0.761 -5.6,-2.287c-3.155,-3.093 -3.205,-8.158 -0.112,-11.313l223.49,-227.988c3.093,-3.155 8.158,-3.206 11.314,-0.113c3.155,3.093 3.205,8.158 0.112,11.313l-223.49,227.988c-1.567,1.598 -3.64,2.4 -5.714,2.4" style="fill:#0a2463;fill-rule:nonzero;"/><path d="M397.164,132.481l-62.829,64.093" style="fill:none;fill-rule:nonzero;"/><path d="M334.335,203.574c-1.768,0 -3.537,-0.666 -4.9,-2.001c-2.762,-2.707 -2.805,-7.139 -0.1,-9.899l62.829,-64.094c2.707,-2.761 7.138,-2.805 9.899,-0.098c2.762,2.706 2.805,7.138 0.099,9.899l-62.827,64.093c-1.373,1.398 -3.185,2.1 -5,2.1" style="fill:#0a2463;fill-rule:nonzero;"/><path d="M250.482,498.482c-1.779,0 -3.558,-0.674 -4.923,-2.023c-2.748,-2.719 -2.772,-7.151 -0.054,-9.9l262.064,-264.936c2.719,-2.749 7.151,-2.772 9.899,-0.054c2.749,2.719 2.773,7.151 0.054,9.899l-262.063,264.937c-1.37,1.384 -3.173,2.077 -4.977,2.077" style="fill:#fb3640;fill-rule:nonzero;"/><path d="M346.169,327.503l-184.663,186.124" style="fill:none;fill-rule:nonzero;"/><path d="M161.506,520.627c-1.782,0 -3.565,-0.676 -4.93,-2.031c-2.745,-2.723 -2.762,-7.155 -0.039,-9.899l184.663,-186.124c2.724,-2.745 7.156,-2.761 9.899,-0.039c2.745,2.723 2.762,7.155 0.039,9.899l-184.663,186.124c-1.368,1.38 -3.169,2.07 -4.969,2.07" style="fill:#0a2463;fill-rule:nonzero;"/><path d="M365.749,90.579c-2.021,0 -4.042,-0.761 -5.6,-2.287c-3.155,-3.093 -3.205,-8.158 -0.112,-11.313l40.865,-41.689c3.093,-3.154 8.159,-3.205 11.313,-0.112c3.156,3.092 3.206,8.157 0.113,11.313l-40.866,41.688c-1.566,1.598 -3.639,2.4 -5.713,2.4" style="fill:#fb3640;fill-rule:nonzero;"/><path d="M516.986,822.054c-2.021,0 -4.042,-0.761 -5.6,-2.287c-3.155,-3.093 -3.205,-8.158 -0.112,-11.314l40.865,-41.688c3.093,-3.155 8.159,-3.205 11.313,-0.112c3.156,3.092 3.206,8.158 0.113,11.313l-40.866,41.689c-1.566,1.597 -3.639,2.399 -5.713,2.399" style="fill:#0a2463;fill-rule:nonzero;"/><path d="M117.781,169.898c-2.021,0 -4.043,-0.761 -5.6,-2.287c-3.155,-3.093 -3.205,-8.158 -0.112,-11.313l40.865,-41.689c3.093,-3.154 8.158,-3.206 11.313,-0.112c3.156,3.092 3.206,8.157 0.113,11.313l-40.866,41.688c-1.566,1.598 -3.639,2.4 -5.713,2.4" style="fill:#fb3640;fill-rule:nonzero;"/><path d="M218.622,79.366c-2.021,0 -4.043,-0.761 -5.6,-2.287c-3.155,-3.093 -3.205,-8.158 -0.112,-11.313l40.865,-41.689c3.093,-3.154 8.158,-3.205 11.313,-0.112c3.156,3.092 3.206,8.157 0.113,11.313l-40.866,41.688c-1.566,1.598 -3.639,2.4 -5.713,2.4" style="fill:#fb3640;fill-rule:nonzero;"/><path d="M732.294,193.372c-2.021,0 -4.043,-0.761 -5.6,-2.287c-3.155,-3.093 -3.205,-8.158 -0.112,-11.313l40.865,-41.689c3.093,-3.154 8.159,-3.205 11.313,-0.112c3.156,3.092 3.206,8.157 0.113,11.313l-40.866,41.688c-1.566,1.598 -3.639,2.4 -5.713,2.4" style="fill:#1b998b;fill-rule:nonzero;"/><path d="M905.338,449.409c-2.021,0 -4.043,-0.761 -5.6,-2.287c-3.155,-3.093 -3.205,-8.158 -0.112,-11.313l40.865,-41.689c3.093,-3.154 8.159,-3.205 11.313,-0.112c3.156,3.092 3.206,8.157 0.113,11.313l-40.866,41.688c-1.566,1.598 -3.639,2.4 -5.713,2.4" style="fill:#fb3640;fill-rule:nonzero;"/><path d="M905.338,225.418c-2.021,0 -4.043,-0.761 -5.6,-2.287c-3.155,-3.093 -3.205,-8.158 -0.112,-11.313l40.865,-41.689c3.093,-3.154 8.159,-3.205 11.313,-0.112c3.156,3.092 3.206,8.157 0.113,11.313l-40.866,41.688c-1.566,1.598 -3.639,2.4 -5.713,2.4" style="fill:#fb3640;fill-rule:nonzero;"/><path d="M905.338,95.889c-2.021,0 -4.043,-0.761 -5.6,-2.287c-3.155,-3.093 -3.205,-8.158 -0.112,-11.313l40.865,-41.689c3.093,-3.154 8.159,-3.205 11.313,-0.112c3.156,3.092 3.206,8.157 0.113,11.313l-40.866,41.688c-1.566,1.598 -3.639,2.4 -5.713,2.4" style="fill:#fb3640;fill-rule:nonzero;"/><path d="M869.299,325.067c-2.021,0 -4.042,-0.761 -5.6,-2.287c-3.155,-3.093 -3.205,-8.158 -0.112,-11.313l90.7,-92.526c3.093,-3.156 8.157,-3.206 11.313,-0.113c3.156,3.093 3.205,8.157 0.113,11.313l-90.701,92.526c-1.566,1.598 -3.639,2.4 -5.713,2.4" style="fill:#1b998b;fill-rule:nonzero;"/><path d="M673.299,669.067c-2.021,0 -4.042,-0.761 -5.6,-2.287c-3.155,-3.093 -3.205,-8.158 -0.112,-11.314l90.7,-92.526c3.093,-3.153 8.158,-3.205 11.313,-0.112c3.155,3.093 3.205,8.158 0.113,11.313l-90.701,92.527c-1.566,1.597 -3.639,2.399 -5.713,2.399" style="fill:#1b998b;fill-rule:nonzero;"/><path d="M266.252,931.309c-2.021,0 -4.042,-0.761 -5.6,-2.287c-3.155,-3.093 -3.205,-8.158 -0.112,-11.314l90.7,-92.526c3.092,-3.153 8.158,-3.205 11.313,-0.112c3.155,3.093 3.205,8.158 0.113,11.313l-90.701,92.527c-1.566,1.597 -3.639,2.399 -5.713,2.399" style="fill:#1b998b;fill-rule:nonzero;"/><path d="M600.495,1043.5c-2.021,0 -4.042,-0.761 -5.6,-2.287c-3.155,-3.093 -3.205,-8.158 -0.112,-11.314l90.7,-92.526c3.093,-3.153 8.158,-3.205 11.313,-0.112c3.155,3.093 3.205,8.158 0.113,11.313l-90.701,92.527c-1.566,1.597 -3.639,2.399 -5.713,2.399" style="fill:#fb3640;fill-rule:nonzero;"/><path d="M1545.57,190.742c-2.021,0 -4.042,-0.761 -5.6,-2.287c-3.155,-3.093 -3.205,-8.158 -0.112,-11.313l40.866,-41.689c3.093,-3.154 8.158,-3.205 11.314,-0.112c3.155,3.092 3.205,8.158 0.112,11.313l-40.866,41.688c-1.567,1.598 -3.64,2.4 -5.714,2.4" style="fill:#fb3640;fill-rule:nonzero;"/><path d="M1503.5,589.088c-2.021,0 -4.042,-0.761 -5.6,-2.287c-3.155,-3.093 -3.205,-8.158 -0.112,-11.314l40.866,-41.688c3.093,-3.153 8.158,-3.206 11.314,-0.112c3.155,3.092 3.205,8.158 0.112,11.313l-40.866,41.689c-1.567,1.597 -3.64,2.399 -5.714,2.399" style="fill:#fb3640;fill-rule:nonzero;"/><path d="M1139.08,504.992c-2.021,0 -4.042,-0.761 -5.6,-2.287c-3.155,-3.093 -3.205,-8.158 -0.112,-11.313l40.866,-41.688c3.093,-3.154 8.158,-3.206 11.314,-0.112c3.155,3.092 3.205,8.158 0.112,11.313l-40.866,41.687c-1.567,1.598 -3.64,2.4 -5.714,2.4" style="fill:#0a2463;fill-rule:nonzero;"/><path d="M839.93,216.161c-2.021,0 -4.042,-0.761 -5.6,-2.287c-3.155,-3.093 -3.205,-8.158 -0.112,-11.313l90.7,-92.526c3.093,-3.156 8.158,-3.206 11.313,-0.113c3.155,3.093 3.205,8.157 0.113,11.313l-90.701,92.526c-1.566,1.598 -3.639,2.4 -5.713,2.4" style="fill:#1b998b;fill-rule:nonzero;"/><path d="M1076.96,493.501c-2.021,0 -4.042,-0.761 -5.6,-2.287c-3.155,-3.093 -3.205,-8.158 -0.112,-11.313l223.49,-227.988c3.093,-3.154 8.158,-3.205 11.314,-0.113c3.155,3.093 3.205,8.158 0.112,11.313l-223.49,227.988c-1.567,1.598 -3.64,2.4 -5.714,2.4" style="fill:#1b998b;fill-rule:nonzero;"/><path d="M1447.54,478.091l-184.663,186.125" style="fill:none;fill-rule:nonzero;"/><path d="M1262.87,671.216c-1.782,0 -3.565,-0.677 -4.931,-2.031c-2.744,-2.723 -2.761,-7.155 -0.038,-9.9l184.662,-186.124c2.724,-2.745 7.156,-2.763 9.901,-0.039c2.744,2.723 2.761,7.155 0.038,9.899l-184.663,186.126c-1.368,1.379 -3.168,2.069 -4.969,2.069" style="fill:#0a2463;fill-rule:nonzero;"/><path d="M1118.65,769.679c-2.021,0 -4.042,-0.761 -5.6,-2.287c-3.155,-3.093 -3.205,-8.158 -0.112,-11.314l40.866,-41.688c3.093,-3.154 8.158,-3.205 11.314,-0.112c3.155,3.092 3.205,8.158 0.112,11.313l-40.866,41.689c-1.567,1.597 -3.64,2.399 -5.714,2.399" style="fill:#fb3640;fill-rule:nonzero;"/><path d="M537.419,748.835c-2.021,0 -4.043,-0.761 -5.601,-2.287c-3.154,-3.093 -3.204,-8.158 -0.111,-11.314l40.866,-41.688c3.092,-3.154 8.158,-3.205 11.313,-0.112c3.154,3.092 3.205,8.158 0.113,11.313l-40.868,41.689c-1.565,1.597 -3.639,2.399 -5.712,2.399" style="fill:#fb3640;fill-rule:nonzero;"/><path d="M1615.25,334.058c-2.021,0 -4.042,-0.761 -5.6,-2.287c-3.154,-3.093 -3.205,-8.158 -0.112,-11.313l40.865,-41.689c3.093,-3.154 8.158,-3.205 11.314,-0.112c3.154,3.092 3.205,8.157 0.112,11.313l-40.865,41.688c-1.567,1.598 -3.64,2.4 -5.714,2.4" style="fill:#0a2463;fill-rule:nonzero;"/><path d="M764.911,79.366c-2.021,0 -4.042,-0.761 -5.6,-2.287c-3.155,-3.093 -3.205,-8.158 -0.112,-11.313l40.865,-41.689c3.093,-3.154 8.158,-3.205 11.313,-0.112c3.155,3.092 3.205,8.157 0.113,11.313l-40.866,41.688c-1.566,1.598 -3.639,2.4 -5.713,2.4" style="fill:#0a2463;fill-rule:nonzero;"/><path d="M117.781,1018.09c-2.021,0 -4.042,-0.761 -5.6,-2.287c-3.155,-3.093 -3.205,-8.158 -0.112,-11.314l40.865,-41.688c3.094,-3.154 8.159,-3.205 11.313,-0.112c3.156,3.092 3.206,8.158 0.113,11.313l-40.866,41.689c-1.566,1.597 -3.639,2.399 -5.713,2.399" style="fill:#0a2463;fill-rule:nonzero;"/><path d="M1110.26,1024.56c-2.021,0 -4.042,-0.761 -5.6,-2.287c-3.154,-3.093 -3.205,-8.158 -0.112,-11.314l40.865,-41.688c3.093,-3.153 8.158,-3.205 11.314,-0.112c3.154,3.092 3.205,8.158 0.112,11.313l-40.865,41.689c-1.567,1.597 -3.64,2.399 -5.714,2.399" style="fill:#0a2463;fill-rule:nonzero;"/><path d="M970.832,449.705c-2.021,0 -4.042,-0.761 -5.6,-2.287c-3.155,-3.093 -3.205,-8.158 -0.112,-11.313l171.525,-174.978c3.093,-3.154 8.158,-3.206 11.314,-0.113c3.155,3.093 3.205,8.158 0.112,11.313l-171.525,174.978c-1.567,1.598 -3.64,2.4 -5.714,2.4" style="fill:#1b998b;fill-rule:nonzero;"/><path d="M842.052,418.815l-72.549,74.009" style="fill:none;fill-rule:nonzero;"/><path d="M769.502,499.824c-1.768,0 -3.537,-0.666 -4.9,-2.001c-2.761,-2.707 -2.805,-7.139 -0.099,-9.899l72.549,-74.009c2.706,-2.76 7.138,-2.805 9.9,-0.099c2.76,2.707 2.804,7.139 0.098,9.9l-72.548,74.008c-1.372,1.398 -3.185,2.1 -5,2.1" style="fill:#0a2463;fill-rule:nonzero;"/><path d="M1584.8,1030.32c-2.021,0 -4.042,-0.761 -5.6,-2.287c-3.154,-3.093 -3.205,-8.158 -0.112,-11.314l90.7,-92.526c3.093,-3.153 8.158,-3.206 11.314,-0.112c3.155,3.093 3.205,8.158 0.112,11.313l-90.7,92.527c-1.567,1.597 -3.64,2.399 -5.714,2.399" style="fill:#1b998b;fill-rule:nonzero;"/><path d="M1622.39,115.998c-2.021,0 -4.043,-0.761 -5.601,-2.287c-3.155,-3.093 -3.205,-8.158 -0.112,-11.313l90.7,-92.526c3.093,-3.155 8.158,-3.206 11.314,-0.113c3.154,3.093 3.205,8.157 0.112,11.313l-90.7,92.526c-1.567,1.598 -3.64,2.4 -5.713,2.4" style="fill:#1b998b;fill-rule:nonzero;"/><path d="M136.832,699.147l-62.829,64.092" style="fill:none;fill-rule:nonzero;"/><path d="M74.002,770.239c-1.768,0 -3.537,-0.666 -4.9,-2.001c-2.761,-2.707 -2.805,-7.139 -0.098,-9.899l62.829,-64.093c2.706,-2.762 7.137,-2.805 9.899,-0.099c2.761,2.707 2.805,7.139 0.098,9.9l-62.829,64.092c-1.371,1.399 -3.184,2.1 -4.999,2.1" style="fill:#0a2463;fill-rule:nonzero;"/><path d="M1597.41,705.842l-62.829,64.092" style="fill:none;fill-rule:nonzero;"/><path d="M1534.58,776.934c-1.769,0 -3.538,-0.666 -4.9,-2.001c-2.761,-2.707 -2.805,-7.139 -0.099,-9.899l62.829,-64.092c2.708,-2.762 7.14,-2.804 9.899,-0.099c2.761,2.707 2.805,7.139 0.099,9.9l-62.829,64.091c-1.371,1.399 -3.185,2.1 -4.999,2.1" style="fill:#0a2463;fill-rule:nonzero;"/><path d="M1085.34,50.533l-62.829,64.092" style="fill:none;fill-rule:nonzero;"/><path d="M1022.51,121.625c-1.769,0 -3.538,-0.666 -4.9,-2.001c-2.761,-2.707 -2.805,-7.139 -0.099,-9.899l62.829,-64.092c2.707,-2.761 7.14,-2.805 9.899,-0.098c2.761,2.706 2.805,7.138 0.099,9.899l-62.829,64.091c-1.371,1.398 -3.185,2.1 -4.999,2.1" style="fill:#0a2463;fill-rule:nonzero;"/><path d="M795.415,638.517l-62.829,64.093" style="fill:none;fill-rule:nonzero;"/><path d="M732.585,709.609c-1.768,0 -3.537,-0.666 -4.9,-2.001c-2.761,-2.707 -2.805,-7.139 -0.098,-9.899l62.829,-64.093c2.706,-2.762 7.137,-2.804 9.899,-0.099c2.761,2.707 2.805,7.139 0.098,9.9l-62.829,64.092c-1.371,1.399 -3.184,2.1 -4.999,2.1" style="fill:#0a2463;fill-rule:nonzero;"/><path d="M1652.96,439.062c-2.021,0 -4.042,-0.761 -5.6,-2.287c-3.154,-3.093 -3.205,-8.158 -0.112,-11.313l71.66,-73.103c3.093,-3.155 8.157,-3.206 11.314,-0.113c3.154,3.093 3.205,8.158 0.112,11.313l-71.66,73.103c-1.567,1.598 -3.64,2.4 -5.714,2.4" style="fill:#1b998b;fill-rule:nonzero;"/><path d="M1799.62,1038.93c-2.021,0 -4.042,-0.761 -5.6,-2.287c-3.154,-3.093 -3.205,-8.158 -0.112,-11.314l40.865,-41.688c3.093,-3.153 8.159,-3.205 11.314,-0.112c3.154,3.092 3.205,8.158 0.112,11.313l-40.865,41.689c-1.567,1.597 -3.64,2.399 -5.714,2.399" style="fill:#0a2463;fill-rule:nonzero;"/></g></svg>